<?xml version="1.0" encoding="UTF-8"?>
<svg xmlns="http://www.w3.org/2000/svg" xmlns:xlink="http://www.w3.org/1999/xlink" viewBox="0 0 1366 768">
  <defs>
    <radialGradient id="Dégradé_sans_nom_506" data-name="Dégradé sans nom 506" cx="745.23" cy="4275.56" fx="745.23" fy="4275.56" r="266.07" gradientTransform="translate(-775.48 261.99) scale(1.87 .1)" gradientUnits="userSpaceOnUse">
      <stop offset="0" stop-color="#000"/>
      <stop offset=".81" stop-color="#fff" stop-opacity=".6"/>
    </radialGradient>
    <radialGradient id="Dégradé_sans_nom_506-2" data-name="Dégradé sans nom 506" cx="1581.49" cy="4537.06" fx="1581.49" fy="4537.06" gradientTransform="translate(578.78 261.99) scale(.21 .1)" xlink:href="#Dégradé_sans_nom_506"/>
    <radialGradient id="Dégradé_sans_nom_509" data-name="Dégradé sans nom 509" cx="2069.74" cy="4551.29" fx="2069.74" fy="4551.29" r="266.07" gradientTransform="translate(578.78 261.99) scale(.21 .1)" gradientUnits="userSpaceOnUse">
      <stop offset="0" stop-color="#000"/>
      <stop offset=".81" stop-color="#fff" stop-opacity=".3"/>
    </radialGradient>
    <radialGradient id="Dégradé_sans_nom_491" data-name="Dégradé sans nom 491" cx="393.05" cy="286.15" fx="393.05" fy="286.15" r="8.21" gradientTransform="translate(637.48 496.22) rotate(-158.74)" gradientUnits="userSpaceOnUse">
      <stop offset="0" stop-color="#f1ab24"/>
      <stop offset="1" stop-color="#b15a24"/>
    </radialGradient>
    <radialGradient id="Dégradé_sans_nom_491-2" data-name="Dégradé sans nom 491" cx="815.29" cy="111.36" fx="815.29" fy="111.36" r="8.21" gradientTransform="translate(150.35 487.81) rotate(-40.97)" xlink:href="#Dégradé_sans_nom_491"/>
    <radialGradient id="Dégradé_sans_nom_491-3" data-name="Dégradé sans nom 491" cx="871.24" cy="88.75" fx="871.24" fy="88.75" r="8.21" gradientTransform="translate(51.8 -4.74) rotate(-2.19)" xlink:href="#Dégradé_sans_nom_491"/>
    <radialGradient id="Dégradé_sans_nom_491-4" data-name="Dégradé sans nom 491" cx="900.79" cy="716.23" fx="900.79" fy="716.23" r="8.21" gradientTransform="translate(558.22 1792.73) rotate(-111.19)" xlink:href="#Dégradé_sans_nom_491"/>
    <radialGradient id="Dégradé_sans_nom_491-5" data-name="Dégradé sans nom 491" cx="864.65" cy="768.13" fx="864.65" fy="768.13" r="8.21" gradientTransform="translate(1760.74 1553.25) rotate(-176.66) scale(1 1.01) skewX(-2.51)" xlink:href="#Dégradé_sans_nom_491"/>
    <radialGradient id="Dégradé_sans_nom_491-6" data-name="Dégradé sans nom 491" cx="412.83" cy="207.82" fx="412.83" fy="207.82" r="8.21" gradientTransform="translate(101.8 -212.49) rotate(12.12)" xlink:href="#Dégradé_sans_nom_491"/>
    <radialGradient id="Dégradé_sans_nom_491-7" data-name="Dégradé sans nom 491" cx="667.54" cy="154.35" fx="667.54" fy="154.35" r="8.21" gradientTransform="translate(529.27 691.84) rotate(-92)" xlink:href="#Dégradé_sans_nom_491"/>
    <radialGradient id="Dégradé_sans_nom_491-8" data-name="Dégradé sans nom 491" cx="850.27" cy="96.31" fx="850.27" fy="96.31" r="8.21" gradientTransform="translate(50.39 189.55) rotate(-16.13)" xlink:href="#Dégradé_sans_nom_491"/>
    <radialGradient id="Dégradé_sans_nom_491-9" data-name="Dégradé sans nom 491" cx="738.78" cy="113.96" fx="738.78" fy="113.96" r="8.21" gradientTransform="translate(101.8 -212.49) rotate(12.12)" xlink:href="#Dégradé_sans_nom_491"/>
    <radialGradient id="Dégradé_sans_nom_491-10" data-name="Dégradé sans nom 491" cx="746.41" cy="169.08" fx="746.41" fy="169.08" gradientTransform="translate(694.65 811.74) rotate(-99.91)" xlink:href="#Dégradé_sans_nom_491"/>
    <radialGradient id="Dégradé_sans_nom_491-11" data-name="Dégradé sans nom 491" cx="832.56" cy="178.13" fx="832.56" fy="178.13" r="8.21" gradientTransform="translate(794.18 923.64) rotate(-99.06)" xlink:href="#Dégradé_sans_nom_491"/>
    <radialGradient id="Dégradé_sans_nom_491-12" data-name="Dégradé sans nom 491" cx="771.11" cy="140.83" fx="771.11" fy="140.83" r="8.21" gradientTransform="translate(101.8 -212.49) rotate(12.12)" xlink:href="#Dégradé_sans_nom_491"/>
    <radialGradient id="Dégradé_sans_nom_491-13" data-name="Dégradé sans nom 491" cx="750.71" cy="156.52" fx="750.71" fy="156.52" r="8.21" gradientTransform="translate(28.84 241.37) rotate(-24.01)" xlink:href="#Dégradé_sans_nom_491"/>
    <radialGradient id="Dégradé_sans_nom_491-14" data-name="Dégradé sans nom 491" cx="862.68" cy="124.64" fx="862.68" fy="124.64" gradientTransform="translate(101.8 -212.49) rotate(12.12)" xlink:href="#Dégradé_sans_nom_491"/>
    <radialGradient id="Dégradé_sans_nom_491-15" data-name="Dégradé sans nom 491" cx="425.04" cy="231.5" fx="425.04" fy="231.5" r="8.21" gradientTransform="translate(916.3 127.37) rotate(159.17)" xlink:href="#Dégradé_sans_nom_491"/>
    <radialGradient id="Dégradé_sans_nom_491-16" data-name="Dégradé sans nom 491" cx="380.11" cy="259.48" fx="380.11" fy="259.48" r="8.21" gradientTransform="translate(272.49 508) rotate(-114.02)" xlink:href="#Dégradé_sans_nom_491"/>
    <radialGradient id="Dégradé_sans_nom_491-17" data-name="Dégradé sans nom 491" cx="446.09" cy="39.29" fx="446.09" fy="39.29" r="8.21" gradientTransform="translate(61.55 301.2) rotate(-41.68)" xlink:href="#Dégradé_sans_nom_491"/>
    <radialGradient id="Dégradé_sans_nom_491-18" data-name="Dégradé sans nom 491" cx="487.91" cy="205.38" fx="487.91" fy="205.38" r="8.21" gradientTransform="translate(5.31 -38.68) rotate(-9.87)" xlink:href="#Dégradé_sans_nom_491"/>
    <radialGradient id="Dégradé_sans_nom_491-19" data-name="Dégradé sans nom 491" cx="504.81" cy="217.46" fx="504.81" fy="217.46" r="8.21" gradientTransform="translate(561.35 -437.15) rotate(66.01)" xlink:href="#Dégradé_sans_nom_491"/>
    <radialGradient id="Dégradé_sans_nom_491-20" data-name="Dégradé sans nom 491" cx="623.26" cy="177.34" fx="623.26" fy="177.34" r="8.21" gradientTransform="translate(8.61 172.82) rotate(-24.83)" xlink:href="#Dégradé_sans_nom_491"/>
    <radialGradient id="Dégradé_sans_nom_491-21" data-name="Dégradé sans nom 491" cx="690.98" cy="153.7" fx="690.98" fy="153.7" r="8.21" gradientTransform="translate(101.8 -212.49) rotate(12.12)" xlink:href="#Dégradé_sans_nom_491"/>
    <radialGradient id="Dégradé_sans_nom_491-22" data-name="Dégradé sans nom 491" cx="654.84" cy="171.79" fx="654.84" fy="171.79" r="8.21" gradientTransform="translate(101.8 -212.49) rotate(12.12)" xlink:href="#Dégradé_sans_nom_491"/>
    <radialGradient id="Dégradé_sans_nom_491-23" data-name="Dégradé sans nom 491" cx="601.8" cy="209.68" fx="601.8" fy="209.68" r="8.21" gradientTransform="translate(159.02 538.16) rotate(-66.12)" xlink:href="#Dégradé_sans_nom_491"/>
    <radialGradient id="Dégradé_sans_nom_491-24" data-name="Dégradé sans nom 491" cx="468.83" cy="170.34" fx="468.83" fy="170.34" r="8.21" gradientTransform="translate(32.2 -86.51) rotate(-4.73)" xlink:href="#Dégradé_sans_nom_491"/>
    <radialGradient id="Dégradé_sans_nom_491-25" data-name="Dégradé sans nom 491" cx="678" cy="138.67" fx="678" fy="138.67" r="8.21" gradientTransform="translate(72.53 325.13) rotate(-36.03)" xlink:href="#Dégradé_sans_nom_491"/>
    <radialGradient id="Dégradé_sans_nom_491-26" data-name="Dégradé sans nom 491" cx="543.56" cy="138.49" fx="543.56" fy="138.49" r="8.21" gradientTransform="translate(101.8 -212.49) rotate(12.12)" xlink:href="#Dégradé_sans_nom_491"/>
    <radialGradient id="Dégradé_sans_nom_491-27" data-name="Dégradé sans nom 491" cx="553.58" cy="212.78" fx="553.58" fy="212.78" r="8.21" gradientTransform="translate(668 622.67) rotate(-123.98)" xlink:href="#Dégradé_sans_nom_491"/>
    <radialGradient id="Dégradé_sans_nom_491-28" data-name="Dégradé sans nom 491" cx="591.43" cy="140.39" fx="591.43" fy="140.39" r="8.21" gradientTransform="translate(101.8 -212.49) rotate(12.12)" xlink:href="#Dégradé_sans_nom_491"/>
    <radialGradient id="Dégradé_sans_nom_491-29" data-name="Dégradé sans nom 491" cx="315.45" cy="242.19" fx="315.45" fy="242.19" r="8.21" gradientTransform="translate(101.8 -212.49) rotate(12.12)" xlink:href="#Dégradé_sans_nom_491"/>
    <linearGradient id="Dégradé_sans_nom_249" data-name="Dégradé sans nom 249" x1="615.27" y1="103.96" x2="614.56" y2="177.49" gradientUnits="userSpaceOnUse">
      <stop offset=".06" stop-color="#000" stop-opacity=".25"/>
      <stop offset=".08" stop-color="#0b0b0b" stop-opacity=".25"/>
      <stop offset=".15" stop-color="#1a1a1a" stop-opacity=".25"/>
    </linearGradient>
    <linearGradient id="Dégradé_sans_nom_194" data-name="Dégradé sans nom 194" x1="297.52" y1="104.78" x2="933.27" y2="104.78" gradientUnits="userSpaceOnUse">
      <stop offset=".03" stop-color="#b3b3b3"/>
      <stop offset=".52" stop-color="#f7f0f0"/>
      <stop offset="1" stop-color="#b3b3b3"/>
    </linearGradient>
    <linearGradient id="Dégradé_sans_nom_249-2" data-name="Dégradé sans nom 249" x1="614.26" y1="806.38" x2="613.92" y2="841.72" gradientTransform="translate(1229.34 1518.75) rotate(-180)" xlink:href="#Dégradé_sans_nom_249"/>
    <linearGradient id="Dégradé_sans_nom_194-2" data-name="Dégradé sans nom 194" x1="379.39" y1="805.36" x2="848.82" y2="805.36" gradientTransform="translate(1229.34 1518.75) rotate(-180)" xlink:href="#Dégradé_sans_nom_194"/>
  </defs>
  <g id="ombres-cornet">
    <ellipse cx="616.79" cy="704.5" rx="497.09" ry="27.54" fill="url(#Dégradé_sans_nom_506)"/>
    <ellipse cx="911.93" cy="731.57" rx="56.05" ry="27.54" fill="url(#Dégradé_sans_nom_506-2)"/>
    <ellipse cx="1014.79" cy="733.04" rx="56.05" ry="27.54" fill="url(#Dégradé_sans_nom_509)"/>
  </g>
  <g id="popcorn-group">
    <g id="Popcorn29">
      <path d="M402.76,116.94s18.82-1.61,21.78-11.75,14.18-22.25,4.26-26.5-14.41-17.56-21.29-16.02-23.47,5.8-25.45,13.96-2.71,29.25,20.7,40.31Z" fill="#ffdb9c"/>
      <path d="M418.25,107.17s-4.13,2.98-8.91,2.88-10.44-.02-12.12-1.95-6.91-4.43-6.47-6.18,2.65-3.06,6.04-2.51,14.24,2.12,14.41,3.15,2.81,2.11,3.7,1.75,3.53,1.73,3.35,2.86Z" fill="#fff"/>
      <path d="M393.54,92.75s-5.52-4.86-3.66-9.21,4.43-11.06,6.9-10.99,4.8-2.05,6.15-1.17,4.3,16.57,2.85,18.34-6.95,12.32-12.25,3.02Z" fill="#fff"/>
      <path d="M414.56,99.21s7.03-.45,7.85-3.47,4.44-4.94,4.05-7.65-.66-6.39-3.8-7.4-8.47-1.86-9.48-.7-6.87,11.82-3.4,11.88,4.79,7.33,4.79,7.33Z" fill="#fff"/>
      <path d="M386.85,74.63s-.2-5.64-1.53-6.96-3.93-3.06-5-3.24-11.26,5.42-11.68,8.04-7.88,21.52-5.18,23.95,7.55,9.39,9.91,8.44,13.92,3.46,14.7-2.1c.08-.54-4.04-15.65-3.97-16.52.63-8.1,2.75-11.61,2.75-11.61Z" fill="#ffdb9c"/>
      <path d="M370.24,95.13s7.5.58,9.03-.94,5.4-12.67,3.11-14.02-10.25-3.74-11.21-2.48-6.26,14.89-.93,17.43Z" fill="url(#Dégradé_sans_nom_491)"/>
      <path d="M384.29,75.58s-4.49,7.23-6.25,6.51-.72-7.63-.72-7.63" fill="#ffdb9c"/>
      <path d="M381.58,71.02s-3.59,3.09-3.75,5.31,1.14,4.16,1.14,4.16c0,0,4.59-7.76,2.61-9.47Z" fill="#fff"/>
    </g>
    <g id="Popcorn28">
      <path d="M799.54,48.07s-7.34,17.41.25,24.74,13.08,22.92,21.46,16.12c8.38-6.8,22.26-4.57,24.09-11.37,1.84-6.81,5.81-23.47-.49-29.02-6.3-5.55-24.62-16.03-45.31-.47Z" fill="#ffdb9c"/>
      <path d="M800.96,66.33s-.72-5.04,1.61-9.23,4.88-9.23,7.37-9.81,7.14-4.05,8.48-2.84,1.47,3.76-.59,6.51-8.52,11.61-9.5,11.28-3.18,1.5-3.27,2.45-3.18,2.32-4.09,1.63Z" fill="#fff"/>
      <path d="M825.23,51.18s6.87-2.61,9.85,1.05,7.72,9.07,6.51,11.23-.43,5.2-1.84,5.99-16.66-3.92-17.56-6.02-7.66-11.89,3.04-12.25Z" fill="#fff"/>
      <path d="M809.73,66.77s-2.88,6.43-.59,8.56,2.3,6.23,4.88,7.14,5.97,2.39,8.31.08,5.59-6.63,5.04-8.07-7.26-11.59-8.93-8.55-8.71.82-8.71.82Z" fill="#fff"/>
      <path d="M844.38,53.71s5.08,2.45,6.87,1.89,4.54-2.05,5.19-2.92.45-12.49-1.67-14.08-15.37-17-18.78-15.74-11.83,2.3-12.09,4.84-9.55,10.71-4.99,13.99c.44.32,15.73,3.72,16.47,4.18,6.87,4.33,8.99,7.85,8.99,7.85Z" fill="#ffdb9c"/>
      <path d="M833.99,29.45s-4.01,6.37-3.38,8.42,8.7,10.68,10.95,9.29,8.09-7.32,7.42-8.76-10.26-12.48-14.99-8.94Z" fill="url(#Dégradé_sans_nom_491-2)"/>
      <path d="M844.74,51s-4.31-7.34-2.85-8.56,7.09,2.92,7.09,2.92" fill="#ffdb9c"/>
      <path d="M850.04,50.73s-1.06-4.62-2.95-5.79-4.21-.93-4.21-.93c0,0,4.73,7.68,7.17,6.72Z" fill="#fff"/>
    </g>
    <g id="Popcorn27">
      <path d="M888.36,34.3s-16.63,8.97-15.3,19.44-4.16,26.06,6.63,26,20.21,10.38,25.91,6.22,19.23-14.66,17.79-22.93-9.15-27.91-35.03-28.74Z" fill="#ffdb9c"/>
      <path d="M878.03,49.44s2.6-4.38,7.03-6.19,9.58-4.13,11.89-3.03,8.1,1.31,8.39,3.09-1.21,3.86-4.54,4.71-13.91,3.72-14.47,2.85-3.42-.82-4.09-.14-3.93-.18-4.21-1.29Z" fill="#fff"/>
      <path d="M906.44,52.83s7,2.27,7.02,6.99.34,11.9-1.96,12.83-3.59,3.79-5.18,3.52-10.53-13.49-9.91-15.69c.62-2.2,1.48-14.07,10.04-7.64Z" fill="#fff"/>
      <path d="M884.59,55.27s-6.27,3.21-5.82,6.31-2.11,6.3-.67,8.62,3.15,5.6,6.43,5.27,8.51-1.66,8.98-3.14,1.6-13.58-1.61-12.26c-3.21,1.33-7.31-4.82-7.31-4.82Z" fill="#fff"/>
      <path d="M919.78,66.79s2.43,5.1,4.18,5.78,4.82,1.25,5.88.98,8.17-9.45,7.52-12.02-1.33-22.88-4.78-24.03-10.66-5.61-12.45-3.8-14.15,2.37-12.65,7.78c.15.53,9.93,12.75,10.22,13.57,2.65,7.68,2.1,11.75,2.1,11.75Z" fill="#ffdb9c"/>
      <path d="M926.88,41.38s-7.11,2.46-7.91,4.45.09,13.77,2.72,14.1,10.89-.64,11.27-2.19-.18-16.15-6.08-16.36Z" fill="url(#Dégradé_sans_nom_491-3)"/>
      <path d="M921.76,64.91s1.24-8.42,3.15-8.46,3.7,6.71,3.7,6.71" fill="#ffdb9c"/>
      <path d="M926.06,68.01s2.06-4.27,1.33-6.37-2.7-3.36-2.7-3.36c0,0-1.13,8.95,1.38,9.73Z" fill="#fff"/>
    </g>
    <g id="Popcorn26_ext">
      <path d="M897.14,734.68s13.89,12.8,23.37,8.14c9.47-4.66,25.99-4.55,22.43-14.74-3.56-10.19,3.23-22.49-2.55-26.52s-20.12-13.41-27.47-9.36c-7.35,4.05-23.42,17.74-15.77,42.48Z" fill="#ffdb9c"/>
      <path d="M914.81,739.52s-4.99-1.03-8.14-4.64-7.03-7.72-6.74-10.26-1.4-8.09.19-8.94,4.04-.11,5.93,2.76,8.05,11.94,7.4,12.76.34,3.5,1.2,3.91,1.11,3.77.15,4.4Z" fill="#fff"/>
      <path d="M908.77,711.56s-.13-7.35,4.32-8.91,11.15-4.19,12.77-2.32,4.75,2.16,5.01,3.75-9.33,14.35-11.61,14.48-13.79,3.19-10.5-7Z" fill="#fff"/>
      <path d="M918.19,731.42s5.08,4.88,7.86,3.45,6.64-.06,8.37-2.17,4.27-4.8,2.89-7.8c-1.38-2.99-4.34-7.5-5.89-7.47s-13.36,2.91-11.06,5.51c2.3,2.6-2.17,8.48-2.17,8.48Z" fill="#fff"/>
      <path d="M917.63,694.39s4.03-3.95,4.1-5.83-.39-4.96-.99-5.88-11.6-4.65-13.81-3.19-21.2,8.71-21.16,12.34-1.83,11.91.46,13.01,6.84,12.61,11.47,9.43c.45-.31,8.82-13.54,9.51-14.08,6.4-5,10.43-5.81,10.43-5.81Z" fill="#ffdb9c"/>
      <path d="M891.29,695.96s4.64,5.92,6.78,6.03,12.99-4.57,12.44-7.16c-.55-2.6-4.16-10.09-5.74-9.94s-15.21,5.43-13.49,11.08Z" fill="url(#Dégradé_sans_nom_491-4)"/>
      <path d="M915.2,693.14s-8.37,1.57-9.02-.22,5.14-5.68,5.14-5.68" fill="#ffdb9c"/>
      <path d="M916.73,688.06s-4.71-.56-6.45.82-2.3,3.65-2.3,3.65c0,0,8.83-1.85,8.75-4.47Z" fill="#fff"/>
    </g>
    <g id="Popcorn25_ext">
      <path d="M1012.08,748.81s17.77-7.41,17.93-18.06c.16-10.65,7.8-25.78-2.93-26.77-10.72-.99-18.6-12.39-24.84-8.76-6.24,3.62-21.15,12.87-20.89,21.32.26,8.45,5.15,28.93,30.73,32.27Z" fill="#ffdb9c"/>
      <path d="M1024.47,734.6s-3.2,4.15-7.85,5.54-10.1,3.23-12.23,1.9-7.86-2.1-7.89-3.92,1.75-3.76,5.17-4.29,14.34-2.39,14.77-1.46,3.28,1.15,4.04.54,3.88.56,4,1.7Z" fill="#fff"/>
      <path d="M996.74,728.45s-6.63-2.96-5.98-7.7,1.34-11.99,3.75-12.7c2.41-.71,4.1-3.46,5.64-3.03s8.56,14.58,7.63,16.73c-.93,2.15-3.45,14-11.04,6.71Z" fill="#fff"/>
      <path d="M1018.78,728.11s6.68-2.62,6.67-5.78,2.98-6.13,1.88-8.6c-1.1-2.48-2.34-5.94-5.64-5.92-3.3.01-8.68.85-9.35,2.28s-3.5,13.49-.13,12.47c3.37-1.02,6.58,5.55,6.58,5.55Z" fill="#fff"/>
      <path d="M985.46,713.13s-1.69-5.36-3.33-6.21-4.61-1.72-5.7-1.55-9.44,8.71-9.15,11.35-1.9,23.12,1.36,24.61,9.8,6.67,11.83,5.03,14.38-1.01,13.66-6.59c-.07-.54-8.07-13.77-8.23-14.63-1.55-7.97-.43-12.01-.43-12.01Z" fill="#ffdb9c"/>
      <path d="M974.84,737.98s7.41-1.78,8.48-3.71c1.07-1.93,1.85-13.85-.72-14.43-2.57-.58-10.9-.41-11.5,1.11s-2.09,16.25,3.74,17.03Z" fill="url(#Dégradé_sans_nom_491-5)"/>
      <path d="M983.23,714.83s-2.41,8.34-4.31,8.2-2.72-7.1-2.72-7.1" fill="#ffdb9c"/>
      <path d="M979.4,711.3s-2.65,4.09-2.21,6.27,2.21,3.64,2.21,3.64c0,0,2.38-8.88,0-9.91Z" fill="#fff"/>
    </g>
    <g id="Popcorn24">
      <path d="M429.54,52.29s-18.33,4.58-19.64,15.05-10.47,24.22,0,26.84,17.02,15.05,23.56,12.44,22.25-9.45,22.91-17.82-1.96-29.31-26.84-36.51Z" fill="#ffdb9c"/>
      <path d="M415.8,64.4s3.6-3.6,8.35-4.25,10.31-1.64,12.27,0,7.53,3.27,7.36,5.07-2.13,3.44-5.56,3.44-14.4.16-14.73-.82-3.11-1.64-3.93-1.15-3.76-1.15-3.76-2.29Z" fill="#fff"/>
      <path d="M442.48,74.71s6.22,3.93,5.07,8.51-2.62,11.62-5.07,11.95-4.42,2.78-5.89,2.13-6.87-15.68-5.73-17.66,4.91-13.27,11.62-4.93Z" fill="#fff"/>
      <path d="M420.71,71.67s-6.87,1.56-7.2,4.67-3.6,5.58-2.78,8.19,1.67,6.21,4.93,6.7,8.66.49,9.47-.82,4.91-12.76,1.47-12.27-5.89-6.47-5.89-6.47Z" fill="#fff"/>
      <path d="M451.96,91.54s1.09,5.54,2.62,6.63,4.36,2.4,5.45,2.4,10.25-7.14,10.25-9.79,4.36-22.5,1.31-24.47-8.95-8.07-11.13-6.76-14.29-1.2-14.18,4.41c.01.55,6.47,14.81,6.55,15.68.67,8.09-.87,11.9-.87,11.9Z" fill="#ffdb9c"/>
      <path d="M465.12,68.66s-7.5.62-8.76,2.36-3.32,13.37-.85,14.33,10.71,2.07,11.46.67,3.82-15.69-1.85-17.36Z" fill="url(#Dégradé_sans_nom_491-6)"/>
      <path d="M454.35,90.2s3.28-7.85,5.14-7.42,1.92,7.42,1.92,7.42" fill="#ffdb9c"/>
      <path d="M457.74,94.27s3.06-3.63,2.86-5.84-1.79-3.93-1.79-3.93c0,0-3.3,8.39-1.07,9.77Z" fill="#fff"/>
    </g>
    <g id="Popcorn23">
      <path d="M643.79,56.71s8.91,16.66,19.39,15.37,26.04,4.25,26.03-6.55,10.45-20.18,6.31-25.89-14.6-19.28-22.87-17.87c-8.27,1.41-27.95,9.05-28.86,34.93Z" fill="#ffdb9c"/>
      <path d="M658.89,67.08s-4.37-2.61-6.16-7.06-4.1-9.6-2.99-11.9,1.34-8.1,3.12-8.38,3.85,1.22,4.69,4.56,3.67,13.93,2.8,14.48-.83,3.41-.15,4.09-.19,3.93-1.3,4.21Z" fill="#fff"/>
      <path d="M662.37,38.69s2.29-6.99,7.01-7,11.91-.3,12.82,2.01,3.78,3.61,3.5,5.19-13.53,10.49-15.73,9.86-14.07-1.52-7.61-10.07Z" fill="#fff"/>
      <path d="M664.74,60.55s3.19,6.28,6.29,5.84,6.29,2.13,8.62.7,5.61-3.13,5.3-6.41-1.64-8.51-3.1-8.99-13.58-1.65-12.26,1.57-4.84,7.29-4.84,7.29Z" fill="#fff"/>
      <path d="M676.38,25.39s5.1-2.41,5.79-4.16,1.26-4.82,1-5.88-9.43-8.2-11.99-7.56-22.89,1.26-24.05,4.7-5.65,10.64-3.84,12.44,2.32,14.16,7.73,12.68c.53-.14,12.78-9.89,13.61-10.17,7.69-2.62,11.76-2.06,11.76-2.06Z" fill="#ffdb9c"/>
      <path d="M650.99,18.22s2.43,7.12,4.42,7.92,13.77-.04,14.11-2.67-.61-10.89-2.15-11.28-16.15.13-16.38,6.03Z" fill="url(#Dégradé_sans_nom_491-7)"/>
      <path d="M674.5,23.41s-8.42-1.27-8.45-3.17,6.73-3.67,6.73-3.67" fill="#ffdb9c"/>
      <path d="M677.62,19.12s-4.26-2.08-6.36-1.35-3.37,2.69-3.37,2.69c0,0,8.94,1.16,9.73-1.35Z" fill="#fff"/>
    </g>
    <g id="Popcorn22">
      <path d="M853.66,38.97s-13.97,12.71-10.17,22.56,2.24,26.29,12.7,23.64c10.46-2.65,22.12,5.2,26.64-.2s15.13-18.86,11.74-26.54c-3.38-7.68-15.6-24.89-40.92-19.46Z" fill="#ffdb9c"/>
      <path d="M847.28,56.14s1.47-4.88,5.34-7.7,8.31-6.32,10.81-5.81,8.18-.68,8.89.98-.25,4.03-3.27,5.66-12.61,6.96-13.36,6.25-3.51.03-4,.85-3.86.77-4.4-.24Z" fill="#fff"/>
      <path d="M875.67,52.59s7.34.52,8.5,5.09,3.19,11.47,1.19,12.92-2.57,4.54-4.18,4.66-13.48-10.55-13.4-12.84-1.96-14.01,7.9-9.84Z" fill="#fff"/>
      <path d="M855.05,60.22s-5.31,4.63-4.13,7.52-.53,6.62,1.43,8.53,4.41,4.68,7.51,3.57,7.86-3.67,7.96-5.21-1.72-13.57-4.51-11.51-8.25-2.91-8.25-2.91Z" fill="#fff"/>
      <path d="M891.99,62.93s3.58,4.36,5.44,4.6,4.98.05,5.94-.47,5.65-11.14,4.4-13.48-6.81-21.89-10.43-22.17-11.7-2.88-13-.69-13.16,5.71-10.41,10.6c.27.48,12.71,9.98,13.19,10.71,4.42,6.81,4.87,10.9,4.87,10.9Z" fill="#ffdb9c"/>
      <path d="M892.75,36.55s-6.31,4.1-6.6,6.23,3.41,13.34,6.04,13.03,10.42-3.25,10.41-4.84-4.07-15.63-9.85-14.41Z" fill="url(#Dégradé_sans_nom_491-8)"/>
      <path d="M893.45,60.62s-.83-8.47,1.02-8.97,5.2,5.62,5.2,5.62" fill="#ffdb9c"/>
      <path d="M898.37,62.6s.97-4.64-.25-6.5-3.44-2.61-3.44-2.61c0,0,1.06,8.95,3.68,9.11Z" fill="#fff"/>
    </g>
    <g id="Popcorn21">
      <path d="M767.94,28.98s-18.33,4.58-19.64,15.05-10.47,24.22,0,26.84,17.02,15.05,23.56,12.44,22.25-9.45,22.91-17.82-1.96-29.31-26.84-36.51Z" fill="#ffdb9c"/>
      <path d="M754.19,41.09s3.6-3.6,8.35-4.25,10.31-1.64,12.27,0,7.53,3.27,7.36,5.07-2.13,3.44-5.56,3.44-14.4.16-14.73-.82-3.11-1.64-3.93-1.15-3.76-1.15-3.76-2.29Z" fill="#fff"/>
      <path d="M780.88,51.39s6.22,3.93,5.07,8.51-2.62,11.62-5.07,11.95-4.42,2.78-5.89,2.13-6.87-15.68-5.73-17.66,4.91-13.27,11.62-4.93Z" fill="#fff"/>
      <path d="M759.1,48.36s-6.87,1.56-7.2,4.67-3.6,5.58-2.78,8.19,1.67,6.21,4.93,6.7,8.66.49,9.47-.82,4.91-12.76,1.47-12.27-5.89-6.47-5.89-6.47Z" fill="#fff"/>
      <path d="M790.36,68.22s1.09,5.54,2.62,6.63,4.36,2.4,5.45,2.4,10.25-7.14,10.25-9.79,4.36-22.5,1.31-24.47-8.95-8.07-11.13-6.76-14.29-1.2-14.18,4.41c.01.55,6.47,14.81,6.55,15.68.67,8.09-.87,11.9-.87,11.9Z" fill="#ffdb9c"/>
      <path d="M803.51,45.35s-7.5.62-8.76,2.36-3.32,13.37-.85,14.33,10.71,2.07,11.46.67,3.82-15.69-1.85-17.36Z" fill="url(#Dégradé_sans_nom_491-9)"/>
      <path d="M792.74,66.89s3.28-7.85,5.14-7.42,1.92,7.42,1.92,7.42" fill="#ffdb9c"/>
      <path d="M796.14,70.96s3.06-3.63,2.86-5.84-1.79-3.93-1.79-3.93c0,0-3.3,8.39-1.07,9.77Z" fill="#fff"/>
    </g>
    <g id="Popcorn20">
      <path d="M721.56,86.67s11.12,15.27,21.32,12.55,26.38.62,24.88-10.07c-1.5-10.69,7.57-21.42,2.69-26.51-4.88-5.09-17.11-17.08-25.11-14.55s-26.43,12.82-23.78,38.57Z" fill="#ffdb9c"/>
      <path d="M737.94,94.86s-4.69-1.99-7.07-6.14-5.38-8.94-4.6-11.38.21-8.21,1.94-8.73,3.98.68,5.27,3.87,5.55,13.29,4.77,13.96-.35,3.5.41,4.07.35,3.92-.71,4.35Z" fill="#fff"/>
      <path d="M737.49,66.26s1.31-7.24,5.98-7.89,11.75-1.93,12.98.22,4.24,3.05,4.18,4.66-11.95,12.25-14.22,11.93-14.14.43-8.92-8.92Z" fill="#fff"/>
      <path d="M742.84,87.59s4.03,5.78,7.03,4.92,6.53,1.24,8.64-.49,5.13-3.88,4.36-7.08-2.79-8.21-4.31-8.48-13.67.24-11.93,3.24-3.79,7.89-3.79,7.89Z" fill="#fff"/>
      <path d="M749.53,51.16s4.72-3.09,5.16-4.91.59-4.95.18-5.96-10.47-6.83-12.92-5.83-22.5,4.4-23.17,7.97-4.13,11.32-2.1,12.85,4.25,13.7,9.41,11.49c.5-.21,11.3-11.56,12.08-11.95,7.25-3.65,11.36-3.66,11.36-3.66Z" fill="#ffdb9c"/>
      <path d="M723.39,47.55s3.39,6.72,5.47,7.24,13.63-1.94,13.6-4.59-2.1-10.71-3.68-10.87-15.98,2.35-15.4,8.23Z" fill="url(#Dégradé_sans_nom_491-10)"/>
      <path d="M747.4,49.45s-8.51-.1-8.8-1.98,6.16-4.56,6.16-4.56" fill="#ffdb9c"/>
      <path d="M749.89,44.78s-4.51-1.47-6.49-.46-2.97,3.13-2.97,3.13c0,0,9.02-.09,9.46-2.67Z" fill="#fff"/>
    </g>
    <g id="Popcorn19">
      <path d="M827.16,112.55s10.9,15.43,21.13,12.87,26.37,1.01,25.02-9.7c-1.34-10.71,7.89-21.31,3.08-26.47-4.81-5.16-16.86-17.33-24.89-14.92s-26.62,12.42-24.34,38.22Z" fill="#ffdb9c"/>
      <path d="M843.42,120.99s-4.66-2.06-6.98-6.24-5.25-9.02-4.44-11.44.33-8.2,2.07-8.7,3.97.74,5.21,3.95,5.36,13.37,4.56,14.03-.4,3.49.35,4.08.29,3.92-.78,4.34Z" fill="#fff"/>
      <path d="M843.39,92.38s1.41-7.22,6.1-7.81,11.78-1.76,12.97.41,4.19,3.11,4.11,4.72-12.13,12.07-14.39,11.72-14.15.22-8.79-9.05Z" fill="#fff"/>
      <path d="M848.43,113.78s3.94,5.84,6.96,5.02,6.51,1.34,8.64-.37,5.19-3.8,4.47-7.01-2.67-8.25-4.19-8.54-13.68.04-11.98,3.06-3.91,7.83-3.91,7.83Z" fill="#fff"/>
      <path d="M855.65,77.46s4.77-3.02,5.23-4.84.66-4.94.27-5.95-10.36-6.98-12.83-6.02-22.56,4.06-23.28,7.62-4.29,11.26-2.28,12.82,4.04,13.76,9.24,11.63c.5-.21,11.47-11.39,12.25-11.77,7.31-3.55,11.41-3.49,11.41-3.49Z" fill="#ffdb9c"/>
      <path d="M829.57,73.46s3.29,6.77,5.37,7.32,13.66-1.74,13.67-4.39-1.94-10.74-3.52-10.93-16.01,2.11-15.52,8Z" fill="url(#Dégradé_sans_nom_491-11)"/>
      <path d="M853.54,75.72s-8.51-.22-8.77-2.11,6.22-4.47,6.22-4.47" fill="#ffdb9c"/>
      <path d="M856.11,71.08s-4.48-1.54-6.48-.55-3.01,3.09-3.01,3.09c0,0,9.02.05,9.49-2.53Z" fill="#fff"/>
    </g>
    <g id="Popcorn18">
      <path d="M793.9,62.04s-18.33,4.58-19.64,15.05-10.47,24.22,0,26.84c10.47,2.62,17.02,15.05,23.56,12.44,6.55-2.62,22.25-9.45,22.91-17.82s-1.96-29.31-26.84-36.51Z" fill="#ffdb9c"/>
      <path d="M780.16,74.15s3.6-3.6,8.35-4.25,10.31-1.64,12.27,0,7.53,3.27,7.36,5.07-2.13,3.44-5.56,3.44-14.4.16-14.73-.82-3.11-1.64-3.93-1.15-3.76-1.15-3.76-2.29Z" fill="#fff"/>
      <path d="M806.84,84.46s6.22,3.93,5.07,8.51-2.62,11.62-5.07,11.95-4.42,2.78-5.89,2.13-6.87-15.68-5.73-17.66,4.91-13.27,11.62-4.93Z" fill="#fff"/>
      <path d="M785.07,81.42s-6.87,1.56-7.2,4.67-3.6,5.58-2.78,8.19,1.67,6.21,4.93,6.7,8.66.49,9.47-.82,4.91-12.76,1.47-12.27-5.89-6.47-5.89-6.47Z" fill="#fff"/>
      <path d="M816.32,101.29s1.09,5.54,2.62,6.63,4.36,2.4,5.45,2.4,10.25-7.14,10.25-9.79,4.36-22.5,1.31-24.47c-3.05-1.96-8.95-8.07-11.13-6.76s-14.29-1.2-14.18,4.41c.01.55,6.47,14.81,6.55,15.68.67,8.09-.87,11.9-.87,11.9Z" fill="#ffdb9c"/>
      <path d="M829.48,78.42s-7.5.62-8.76,2.36-3.32,13.37-.85,14.33,10.71,2.07,11.46.67,3.82-15.69-1.85-17.36Z" fill="url(#Dégradé_sans_nom_491-12)"/>
      <path d="M818.7,99.95s3.28-7.85,5.14-7.42,1.92,7.42,1.92,7.42" fill="#ffdb9c"/>
      <path d="M822.1,104.02s3.06-3.63,2.86-5.84-1.79-3.93-1.79-3.93c0,0-3.3,8.39-1.07,9.77Z" fill="#fff"/>
    </g>
    <g id="Popcorn17">
      <path d="M737.45,77.67s-12.1,14.51-6.98,23.74,5.82,25.74,15.82,21.68c10-4.06,22.62,2.13,26.36-3.85,3.74-5.97,12.4-20.76,8-27.9s-18.87-22.52-43.2-13.67Z" fill="#ffdb9c"/>
      <path d="M733.49,95.55s.79-5.03,4.23-8.36,7.36-7.4,9.91-7.24,8.01-1.79,8.94-.24.31,4.03-2.47,6.06-11.53,8.62-12.38,8.02-3.48.51-3.85,1.39-3.72,1.29-4.39.37Z" fill="#fff"/>
      <path d="M761.12,88.15s7.34-.49,9.11,3.88,4.74,10.93,2.95,12.64-1.93,4.85-3.5,5.19-14.79-8.61-15.04-10.88-3.86-13.61,6.48-10.83Z" fill="#fff"/>
      <path d="M741.74,98.53s-4.63,5.32-3.06,8.02.38,6.63,2.58,8.26,5.01,4.03,7.93,2.51,7.28-4.71,7.17-6.25-3.56-13.2-6.05-10.78-8.57-1.75-8.57-1.75Z" fill="#fff"/>
      <path d="M778.7,96.15s4.15,3.83,6.02,3.81,4.94-.63,5.82-1.28,4.07-11.81,2.51-13.95-9.74-20.75-13.37-20.53c-3.62.21-11.98-1.25-12.98,1.1s-12.26,7.46-8.86,11.92c.33.43,13.96,8.14,14.53,8.8,5.31,6.15,6.31,10.13,6.31,10.13Z" fill="#ffdb9c"/>
      <path d="M775.84,69.92s-5.69,4.92-5.69,7.07,5.2,12.75,7.77,12.08,9.87-4.65,9.65-6.22-6.17-14.93-11.73-12.93Z" fill="url(#Dégradé_sans_nom_491-13)"/>
      <path d="M779.84,93.66s-1.98-8.28-.22-9.02,5.93,4.86,5.93,4.86" fill="#ffdb9c"/>
      <path d="M784.98,94.95s.33-4.73-1.14-6.4-3.76-2.12-3.76-2.12c0,0,2.28,8.72,4.9,8.52Z" fill="#fff"/>
    </g>
    <g id="Popcorn16">
      <path d="M886.83,65.45s-18.33,4.58-19.64,15.05-10.47,24.22,0,26.84c10.47,2.62,17.02,15.05,23.56,12.44,6.55-2.62,22.25-9.45,22.91-17.82s-1.96-29.31-26.84-36.51Z" fill="#ffdb9c"/>
      <path d="M873.08,77.55s3.6-3.6,8.35-4.25,10.31-1.64,12.27,0,7.53,3.27,7.36,5.07-2.13,3.44-5.56,3.44-14.4.16-14.73-.82-3.11-1.64-3.93-1.15-3.76-1.15-3.76-2.29Z" fill="#fff"/>
      <path d="M899.77,87.86s6.22,3.93,5.07,8.51-2.62,11.62-5.07,11.95-4.42,2.78-5.89,2.13-6.87-15.68-5.73-17.66,4.91-13.27,11.62-4.93Z" fill="#fff"/>
      <path d="M877.99,84.83s-6.87,1.56-7.2,4.67-3.6,5.58-2.78,8.19,1.67,6.21,4.93,6.7,8.66.49,9.47-.82,4.91-12.76,1.47-12.27-5.89-6.47-5.89-6.47Z" fill="#fff"/>
      <path d="M909.25,104.69s1.09,5.54,2.62,6.63,4.36,2.4,5.45,2.4,10.25-7.14,10.25-9.79,4.36-22.5,1.31-24.47c-3.05-1.96-8.95-8.07-11.13-6.76s-14.29-1.2-14.18,4.41c.01.55,6.47,14.81,6.55,15.68.67,8.09-.87,11.9-.87,11.9Z" fill="#ffdb9c"/>
      <path d="M922.4,81.82s-7.5.62-8.76,2.36-3.32,13.37-.85,14.33,10.71,2.07,11.46.67,3.82-15.69-1.85-17.36Z" fill="url(#Dégradé_sans_nom_491-14)"/>
      <path d="M911.63,103.35s3.28-7.85,5.14-7.42,1.92,7.42,1.92,7.42" fill="#ffdb9c"/>
      <path d="M915.03,107.42s3.06-3.63,2.86-5.84-1.79-3.93-1.79-3.93c0,0-3.3,8.39-1.07,9.77Z" fill="#fff"/>
    </g>
    <g id="Popcorn15">
      <path d="M477.43,65.68s12.89-13.81,8.29-23.31-4.39-26.02-14.6-22.52c-10.21,3.5-22.47-3.37-26.54,2.38-4.07,5.76-13.53,20.04-9.53,27.41s17.59,23.53,42.38,16.04Z" fill="#ffdb9c"/>
      <path d="M482.38,48.05s-1.06,4.98-4.69,8.11-7.76,6.98-10.3,6.68-8.1,1.35-8.94-.25-.08-4.04,2.8-5.91,11.99-7.97,12.8-7.32,3.5-.32,3.92-1.18,3.78-1.09,4.4-.13Z" fill="#fff"/>
      <path d="M454.38,53.91s-7.35.09-8.89-4.38-4.12-11.17-2.24-12.78,2.19-4.74,3.79-4.99,14.29,9.42,14.41,11.7,3.1,13.81-7.07,10.45Z" fill="#fff"/>
      <path d="M474.3,44.61s4.92-5.05,3.5-7.84-.02-6.64-2.12-8.39-4.78-4.3-7.78-2.94-7.53,4.3-7.5,5.84,2.82,13.38,5.44,11.1,8.46,2.23,8.46,2.23Z" fill="#fff"/>
      <path d="M437.27,44.95s-3.93-4.05-5.8-4.14-4.97.36-5.88.95-4.72,11.57-3.28,13.79,8.58,21.26,12.21,21.24c3.63-.01,11.9,1.91,13.02-.38s12.65-6.77,9.5-11.41c-.31-.45-13.49-8.9-14.02-9.59-4.96-6.43-5.74-10.46-5.74-10.46Z" fill="#ffdb9c"/>
      <path d="M438.67,71.3s5.95-4.6,6.07-6.75-4.49-13.02-7.09-12.49-10.11,4.09-9.98,5.68,5.33,15.25,10.99,13.56Z" fill="url(#Dégradé_sans_nom_491-15)"/>
      <path d="M436,47.37s1.52,8.38-.28,9.02-5.65-5.18-5.65-5.18" fill="#ffdb9c"/>
      <path d="M430.93,45.8s-.59,4.7.78,6.46,3.64,2.32,3.64,2.32c0,0-1.79-8.84-4.42-8.78Z" fill="#fff"/>
    </g>
    <g id="Popcorn14">
      <path d="M353.52,96.02s14.51,12.1,23.74,6.98,25.73-5.83,21.67-15.83,2.12-22.62-3.85-26.36-20.76-12.4-27.9-7.99-22.51,18.87-13.66,43.2Z" fill="#ffdb9c"/>
      <path d="M371.41,99.98s-5.03-.78-8.36-4.23-7.4-7.36-7.24-9.91-1.8-8.01-.25-8.94,4.03-.31,6.06,2.47,8.63,11.53,8.03,12.38.51,3.48,1.39,3.85,1.29,3.71.37,4.39Z" fill="#fff"/>
      <path d="M364,72.35s-.5-7.34,3.88-9.12,10.93-4.74,12.64-2.95,4.85,1.93,5.19,3.5-8.61,14.8-10.88,15.04-13.61,3.86-10.83-6.48Z" fill="#fff"/>
      <path d="M374.39,91.72s5.32,4.63,8.02,3.06,6.63-.39,8.26-2.58,4.03-5.01,2.51-7.93-4.71-7.28-6.25-7.17-13.2,3.56-10.78,6.05-1.75,8.57-1.75,8.57Z" fill="#fff"/>
      <path d="M372,54.77s3.83-4.15,3.81-6.02-.64-4.94-1.28-5.82-11.81-4.07-13.95-2.51-20.75,9.75-20.53,13.37-1.24,11.99,1.1,12.98,7.46,12.25,11.92,8.85c.43-.33,8.14-13.96,8.8-14.53,6.14-5.31,10.13-6.32,10.13-6.32Z" fill="#ffdb9c"/>
      <path d="M345.77,57.63s4.92,5.69,7.07,5.69,12.75-5.2,12.07-7.77-4.65-9.87-6.22-9.65-14.93,6.17-12.93,11.73Z" fill="url(#Dégradé_sans_nom_491-16)"/>
      <path d="M369.51,53.63s-8.28,1.98-9.02.22,4.86-5.93,4.86-5.93" fill="#ffdb9c"/>
      <path d="M370.79,48.49s-4.73-.33-6.4,1.14-2.12,3.76-2.12,3.76c0,0,8.72-2.28,8.52-4.9Z" fill="#fff"/>
    </g>
    <g id="Popcorn13">
      <path d="M381.56,45.09s-7.13,17.5.55,24.74,13.36,22.75,21.66,15.85,22.2-4.84,23.95-11.67,5.51-23.54-.85-29.01-24.81-15.72-45.31.1Z" fill="#ffdb9c"/>
      <path d="M383.21,63.34s-.78-5.03,1.5-9.25,4.77-9.29,7.25-9.9,7.09-4.14,8.44-2.95,1.52,3.75-.51,6.52-8.37,11.72-9.36,11.4-3.16,1.54-3.24,2.49-3.15,2.36-4.07,1.68Z" fill="#fff"/>
      <path d="M407.29,47.89s6.84-2.7,9.86.93,7.83,8.97,6.64,11.15-.36,5.21-1.76,6.01-16.71-3.71-17.63-5.81-7.81-11.8,2.89-12.28Z" fill="#fff"/>
      <path d="M391.98,63.67s-2.8,6.47-.48,8.57,2.38,6.2,4.97,7.08,6,2.32,8.32-.02,5.51-6.7,4.93-8.13-7.4-11.5-9.03-8.44-8.7.93-8.7.93Z" fill="#fff"/>
      <path d="M426.47,50.18s5.11,2.39,6.9,1.8,4.51-2.1,5.16-2.98.29-12.49-1.84-14.06-15.58-16.81-18.97-15.5-11.8,2.45-12.03,4.99-9.41,10.82-4.82,14.05c.45.31,15.77,3.52,16.52,3.98,6.93,4.24,9.09,7.73,9.09,7.73Z" fill="#ffdb9c"/>
      <path d="M415.78,26.06s-3.93,6.42-3.27,8.46,8.83,10.57,11.07,9.15,8-7.42,7.31-8.86-10.41-12.35-15.1-8.76Z" fill="url(#Dégradé_sans_nom_491-17)"/>
      <path d="M426.8,47.47s-4.4-7.29-2.95-8.53,7.12,2.83,7.12,2.83" fill="#ffdb9c"/>
      <path d="M432.09,47.13s-1.12-4.61-3.03-5.76-4.23-.88-4.23-.88c0,0,4.82,7.62,7.25,6.63Z" fill="#fff"/>
    </g>
    <g id="Popcorn12">
      <path d="M481.92,68.81s-15.28,11.11-12.57,21.31-.64,26.38,10.05,24.88,21.42,7.59,26.51,2.71,17.09-17.1,14.57-25.1-12.8-26.44-38.56-23.8Z" fill="#ffdb9c"/>
      <path d="M473.71,85.18s1.99-4.69,6.14-7.07,8.95-5.38,11.38-4.6,8.21.22,8.73,1.95-.69,3.98-3.87,5.27-13.29,5.54-13.96,4.76-3.5-.35-4.07.41-3.92.35-4.35-.71Z" fill="#fff"/>
      <path d="M502.31,84.75s7.24,1.31,7.89,5.99,1.92,11.75-.23,12.98-3.05,4.23-4.67,4.18-12.24-11.96-11.92-14.23-.42-14.14,8.93-8.92Z" fill="#fff"/>
      <path d="M480.98,90.09s-5.79,4.02-4.93,7.03-1.25,6.52.49,8.64,3.87,5.13,7.08,4.37,8.21-2.79,8.48-4.31-.23-13.67-3.23-11.93-7.89-3.8-7.89-3.8Z" fill="#fff"/>
      <path d="M517.4,96.8s3.09,4.73,4.91,5.17,4.94.59,5.96.18,6.83-10.46,5.84-12.92-4.38-22.5-7.95-23.18-11.32-4.13-12.85-2.1-13.7,4.24-11.5,9.4c.21.5,11.55,11.3,11.94,12.08,3.65,7.26,3.65,11.36,3.65,11.36Z" fill="#ffdb9c"/>
      <path d="M521.03,70.67s-6.72,3.38-7.24,5.47,1.93,13.64,4.58,13.61,10.71-2.09,10.88-3.67-2.34-15.98-8.22-15.4Z" fill="url(#Dégradé_sans_nom_491-18)"/>
      <path d="M519.11,94.67s.1-8.51,1.99-8.8,4.56,6.16,4.56,6.16" fill="#ffdb9c"/>
      <path d="M523.79,97.17s1.48-4.51.46-6.49-3.13-2.97-3.13-2.97c0,0,.08,9.02,2.67,9.46Z" fill="#fff"/>
    </g>
    <g id="Popcorn11">
      <path d="M569.2,71.63s-14.5-12.11-23.74-6.99-25.74,5.81-21.68,15.82-2.13,22.62,3.84,26.37,20.75,12.41,27.9,8.01,22.52-18.86,13.68-43.2Z" fill="#ffdb9c"/>
      <path d="M551.32,67.66s5.03.79,8.36,4.23,7.4,7.36,7.23,9.91,1.79,8.01.24,8.94-4.03.31-6.06-2.47-8.62-11.54-8.02-12.38-.51-3.48-1.39-3.85-1.29-3.72-.37-4.39Z" fill="#fff"/>
      <path d="M558.72,95.3s.49,7.34-3.88,9.11-10.93,4.73-12.64,2.94-4.85-1.93-5.19-3.51,8.61-14.79,10.89-15.03,13.61-3.86,10.83,6.48Z" fill="#fff"/>
      <path d="M548.34,75.92s-5.31-4.63-8.02-3.06-6.63.38-8.26,2.58-4.03,5.01-2.51,7.93,4.71,7.28,6.25,7.17,13.2-3.56,10.78-6.04,1.76-8.57,1.76-8.57Z" fill="#fff"/>
      <path d="M550.71,112.87s-3.83,4.15-3.81,6.02.63,4.94,1.28,5.82,11.81,4.08,13.95,2.51,20.75-9.74,20.54-13.36,1.25-11.98-1.09-12.98-7.45-12.26-11.92-8.86c-.43.33-8.15,13.96-8.81,14.53-6.15,5.31-10.13,6.31-10.13,6.31Z" fill="#ffdb9c"/>
      <path d="M576.94,110.02s-4.92-5.69-7.07-5.69-12.75,5.2-12.08,7.76,4.64,9.87,6.22,9.65,14.93-6.17,12.93-11.73Z" fill="url(#Dégradé_sans_nom_491-19)"/>
      <path d="M553.2,114.01s8.28-1.98,9.02-.22-4.86,5.92-4.86,5.92" fill="#ffdb9c"/>
      <path d="M551.91,119.16s4.73.33,6.4-1.13,2.12-3.76,2.12-3.76c0,0-8.73,2.28-8.52,4.89Z" fill="#fff"/>
    </g>
    <g id="Popcorn10">
      <path d="M607.87,71.32s-11.89,14.68-6.64,23.84,6.19,25.65,16.13,21.44,22.65,1.8,26.31-4.23,12.1-20.93,7.59-28.01-19.19-22.24-43.39-13.04Z" fill="#ffdb9c"/>
      <path d="M604.16,89.26s.71-5.04,4.11-8.42,7.25-7.51,9.81-7.38,7.98-1.91,8.93-.37.37,4.02-2.38,6.09-11.41,8.79-12.26,8.2-3.47.56-3.83,1.45-3.7,1.35-4.38.43Z" fill="#fff"/>
      <path d="M631.68,81.46s7.33-.6,9.17,3.75,4.89,10.86,3.13,12.6-1.86,4.88-3.43,5.24-14.92-8.39-15.19-10.67-4.06-13.56,6.32-10.92Z" fill="#fff"/>
      <path d="M612.46,92.12s-4.55,5.38-2.94,8.06.48,6.63,2.7,8.22,5.07,3.96,7.96,2.39,7.21-4.81,7.08-6.35-3.75-13.15-6.2-10.69-8.6-1.63-8.6-1.63Z" fill="#fff"/>
      <path d="M649.38,89.21s4.2,3.77,6.08,3.72,4.93-.71,5.8-1.36,3.9-11.87,2.31-13.99-10.04-20.6-13.66-20.34-12-1.07-12.96,1.29-12.15,7.63-8.68,12.05c.34.43,14.07,7.94,14.66,8.59,5.4,6.07,6.46,10.04,6.46,10.04Z" fill="#ffdb9c"/>
      <path d="M646.14,63.02s-5.62,5-5.59,7.15,5.39,12.68,7.94,11.96,9.8-4.79,9.56-6.36-6.38-14.84-11.91-12.76Z" fill="url(#Dégradé_sans_nom_491-20)"/>
      <path d="M650.48,86.7s-2.1-8.25-.35-9.02,6,4.77,6,4.77" fill="#ffdb9c"/>
      <path d="M655.64,87.91s.26-4.73-1.23-6.39-3.79-2.06-3.79-2.06c0,0,2.4,8.69,5.02,8.45Z" fill="#fff"/>
    </g>
    <g id="Popcorn9">
      <path d="M712.86,57.8s-18.33,4.58-19.64,15.05-10.47,24.22,0,26.84,17.02,15.05,23.56,12.44,22.25-9.45,22.91-17.82-1.96-29.31-26.84-36.51Z" fill="#ffdb9c"/>
      <path d="M699.11,69.91s3.6-3.6,8.35-4.25,10.31-1.64,12.27,0,7.53,3.27,7.36,5.07-2.13,3.44-5.56,3.44-14.4.16-14.73-.82-3.11-1.64-3.93-1.15-3.76-1.15-3.76-2.29Z" fill="#fff"/>
      <path d="M725.79,80.22s6.22,3.93,5.07,8.51-2.62,11.62-5.07,11.95-4.42,2.78-5.89,2.13-6.87-15.68-5.73-17.66,4.91-13.27,11.62-4.93Z" fill="#fff"/>
      <path d="M704.02,77.18s-6.87,1.56-7.2,4.67-3.6,5.58-2.78,8.19,1.67,6.21,4.93,6.7,8.66.49,9.47-.82,4.91-12.76,1.47-12.27-5.89-6.47-5.89-6.47Z" fill="#fff"/>
      <path d="M735.27,97.04s1.09,5.54,2.62,6.63,4.36,2.4,5.45,2.4,10.25-7.14,10.25-9.79,4.36-22.5,1.31-24.47-8.95-8.07-11.13-6.76-14.29-1.2-14.18,4.41c.01.55,6.47,14.81,6.55,15.68.67,8.09-.87,11.9-.87,11.9Z" fill="#ffdb9c"/>
      <path d="M748.43,74.17s-7.5.62-8.76,2.36-3.32,13.37-.85,14.33,10.71,2.07,11.46.67,3.82-15.69-1.85-17.36Z" fill="url(#Dégradé_sans_nom_491-21)"/>
      <path d="M737.66,95.71s3.28-7.85,5.14-7.42,1.92,7.42,1.92,7.42" fill="#ffdb9c"/>
      <path d="M741.06,99.78s3.06-3.63,2.86-5.84-1.79-3.93-1.79-3.93c0,0-3.3,8.39-1.07,9.77Z" fill="#fff"/>
    </g>
    <g id="Popcorn8">
      <path d="M673.73,67.89s-18.33,4.58-19.64,15.05-10.47,24.22,0,26.84,17.02,15.05,23.56,12.44,22.25-9.45,22.91-17.82-1.96-29.31-26.84-36.51Z" fill="#ffdb9c"/>
      <path d="M659.98,80s3.6-3.6,8.35-4.25,10.31-1.64,12.27,0,7.53,3.27,7.36,5.07-2.13,3.44-5.56,3.44-14.4.16-14.73-.82-3.11-1.64-3.93-1.15-3.76-1.15-3.76-2.29Z" fill="#fff"/>
      <path d="M686.67,90.31s6.22,3.93,5.07,8.51-2.62,11.62-5.07,11.95-4.42,2.78-5.89,2.13-6.87-15.68-5.73-17.66,4.91-13.27,11.62-4.93Z" fill="#fff"/>
      <path d="M664.89,87.28s-6.87,1.56-7.2,4.67-3.6,5.58-2.78,8.19,1.67,6.21,4.93,6.7,8.66.49,9.47-.82,4.91-12.76,1.47-12.27-5.89-6.47-5.89-6.47Z" fill="#fff"/>
      <path d="M696.15,107.14s1.09,5.54,2.62,6.63,4.36,2.4,5.45,2.4,10.25-7.14,10.25-9.79,4.36-22.5,1.31-24.47-8.95-8.07-11.13-6.76-14.29-1.2-14.18,4.41c.01.55,6.47,14.81,6.55,15.68.67,8.09-.87,11.9-.87,11.9Z" fill="#ffdb9c"/>
      <path d="M709.3,84.27s-7.5.62-8.76,2.36-3.32,13.37-.85,14.33,10.71,2.07,11.46.67,3.82-15.69-1.85-17.36Z" fill="url(#Dégradé_sans_nom_491-22)"/>
      <path d="M698.53,105.8s3.28-7.85,5.14-7.42,1.92,7.42,1.92,7.42" fill="#ffdb9c"/>
      <path d="M701.93,109.87s3.06-3.63,2.86-5.84-1.79-3.93-1.79-3.93c0,0-3.3,8.39-1.07,9.77Z" fill="#fff"/>
    </g>
    <g id="Popcorn7">
      <path d="M563.2,99.17s.75,18.88,10.74,22.29,21.58,15.19,26.27,5.47,18.21-13.59,16.98-20.54-4.72-23.71-12.78-26.06-29.1-4.05-41.21,18.84Z" fill="#ffdb9c"/>
      <path d="M572.25,115.09s-2.79-4.26-2.47-9.04.5-10.43,2.5-12.02,4.74-6.7,6.47-6.18,2.93,2.78,2.23,6.15-2.77,14.13-3.8,14.25-2.24,2.71-1.92,3.61-1.89,3.45-3.01,3.22Z" fill="#fff"/>
      <path d="M587.78,91.07s5.11-5.29,9.36-3.23,10.84,4.93,10.66,7.4,1.82,4.89.88,6.2-16.75,3.54-18.45,2.01-11.99-7.51-2.46-12.38Z" fill="#fff"/>
      <path d="M580.37,111.77s.13,7.05,3.11,8,4.73,4.66,7.45,4.39,6.42-.37,7.56-3.46,2.24-8.37,1.13-9.44-11.5-7.41-11.72-3.94-7.54,4.45-7.54,4.45Z" fill="#fff"/>
      <path d="M606.19,85.22s5.64.06,7.02-1.21,3.24-3.78,3.46-4.85-4.9-11.49-7.49-12.03-21.14-8.86-23.69-6.26-9.73,7.11-8.89,9.52-4.09,13.75,1.43,14.78c.54.1,15.81-3.32,16.68-3.21,8.06,1,11.48,3.28,11.48,3.28Z" fill="#ffdb9c"/>
      <path d="M586.48,67.68s-.92,7.47.52,9.06,12.41,5.97,13.86,3.75,4.21-10.07,2.99-11.08-14.59-6.93-17.37-1.72Z" fill="url(#Dégradé_sans_nom_491-23)"/>
      <path d="M605.37,82.61s-7.02-4.81-6.22-6.54,7.65-.37,7.65-.37" fill="#ffdb9c"/>
      <path d="M610.04,80.11s-2.93-3.73-5.14-3.99-4.21.95-4.21.95c0,0,7.54,4.94,9.35,3.04Z" fill="#fff"/>
    </g>
    <g id="Popcorn6">
      <path d="M475.36,29.9s-16.21,9.7-14.43,20.1-3,26.21,7.78,25.68,20.65,9.47,26.16,5.07,18.56-15.5,16.76-23.69-10.38-27.48-36.27-27.16Z" fill="#ffdb9c"/>
      <path d="M465.72,45.48s2.4-4.49,6.75-6.49,9.39-4.56,11.75-3.56,8.15.95,8.52,2.72-1.04,3.91-4.33,4.9-13.73,4.33-14.33,3.49-3.45-.66-4.09.04-3.93,0-4.27-1.1Z" fill="#fff"/>
      <path d="M494.24,47.61s7.09,1.96,7.32,6.67.86,11.88-1.39,12.9-3.42,3.94-5.02,3.74-11.12-13.01-10.6-15.24.85-14.12,9.69-8.08Z" fill="#fff"/>
      <path d="M472.52,51.01s-6.12,3.49-5.54,6.56-1.83,6.39-.29,8.65,3.4,5.46,6.66,4.98,8.43-2.04,8.83-3.53,1-13.64-2.15-12.17-7.51-4.49-7.51-4.49Z" fill="#fff"/>
      <path d="M508.19,60.97s2.65,4.98,4.43,5.58,4.87,1.03,5.92.72,7.74-9.81,6.98-12.34-2.35-22.8-5.84-23.79-10.9-5.13-12.61-3.25-14.03,2.99-12.29,8.33c.17.52,10.49,12.29,10.81,13.11,2.98,7.55,2.62,11.65,2.62,11.65Z" fill="#ffdb9c"/>
      <path d="M514.15,35.26s-7,2.77-7.7,4.8.7,13.75,3.35,13.96,10.85-1.13,11.16-2.69-.9-16.13-6.8-16.08Z" fill="url(#Dégradé_sans_nom_491-24)"/>
      <path d="M510.09,58.99s.86-8.47,2.77-8.59,3.99,6.54,3.99,6.54" fill="#ffdb9c"/>
      <path d="M514.52,61.9s1.87-4.36,1.04-6.42-2.85-3.24-2.85-3.24c0,0-.73,8.99,1.81,9.66Z" fill="#fff"/>
    </g>
    <g id="Popcorn5">
      <path d="M662.2,45.74s-8.81,16.71-1.89,24.67c6.93,7.96,11.05,23.96,19.99,17.9s22.57-2.63,24.98-9.26c2.42-6.62,7.8-22.88,2.01-28.95-5.79-6.07-23.14-18.09-45.1-4.37Z" fill="#ffdb9c"/>
      <path d="M662.05,64.06s-.28-5.08,2.4-9.06,5.66-8.77,8.19-9.14,7.46-3.42,8.69-2.1,1.14,3.88-1.15,6.44-9.48,10.84-10.43,10.43-3.29,1.22-3.47,2.16-3.36,2.04-4.22,1.28Z" fill="#fff"/>
      <path d="M687.53,51.05s7.07-2.01,9.72,1.9,6.91,9.7,5.51,11.75-.88,5.15-2.35,5.81-16.26-5.34-16.97-7.51-6.61-12.51,4.08-11.94Z" fill="#fff"/>
      <path d="M670.75,65.25s-3.42,6.16-1.32,8.48,1.76,6.41,4.25,7.54,5.74,2.9,8.28.8,6.14-6.12,5.71-7.6-6.23-12.17-8.16-9.28-8.75.07-8.75.07Z" fill="#fff"/>
      <path d="M706.4,55.22s4.85,2.88,6.68,2.47,4.7-1.65,5.43-2.46,1.52-12.4-.45-14.17-13.85-18.26-17.35-17.3-11.98,1.28-12.46,3.78-10.43,9.84-6.18,13.51c.41.36,15.35,5.06,16.05,5.58,6.47,4.9,8.29,8.59,8.29,8.59Z" fill="#ffdb9c"/>
      <path d="M698.13,30.16s-4.54,6-4.09,8.1,7.74,11.39,10.11,10.19,8.69-6.6,8.14-8.09-9.14-13.31-14.16-10.2Z" fill="url(#Dégradé_sans_nom_491-25)"/>
      <path d="M706.99,52.55s-3.66-7.68-2.1-8.78,6.81,3.52,6.81,3.52" fill="#ffdb9c"/>
      <path d="M712.29,52.73s-.66-4.69-2.44-6.03-4.12-1.29-4.12-1.29c0,0,4.05,8.06,6.56,7.31Z" fill="#fff"/>
    </g>
    <g id="Popocorn4">
      <path d="M571.92,11.97s-18.33,4.58-19.64,15.05-10.47,24.22,0,26.84,17.02,15.05,23.56,12.44,22.25-9.45,22.91-17.82-1.96-29.31-26.84-36.51Z" fill="#ffdb9c"/>
      <path d="M558.17,24.08s3.6-3.6,8.35-4.25,10.31-1.64,12.27,0,7.53,3.27,7.36,5.07-2.13,3.44-5.56,3.44-14.4.16-14.73-.82-3.11-1.64-3.93-1.15-3.76-1.15-3.76-2.29Z" fill="#fff"/>
      <path d="M584.86,34.39s6.22,3.93,5.07,8.51-2.62,11.62-5.07,11.95-4.42,2.78-5.89,2.13-6.87-15.68-5.73-17.66,4.91-13.27,11.62-4.93Z" fill="#fff"/>
      <path d="M563.08,31.35s-6.87,1.56-7.2,4.67-3.6,5.58-2.78,8.19,1.67,6.21,4.93,6.7,8.66.49,9.47-.82,4.91-12.76,1.47-12.27-5.89-6.47-5.89-6.47Z" fill="#fff"/>
      <path d="M594.33,51.22s1.09,5.54,2.62,6.63,4.36,2.4,5.45,2.4,10.25-7.14,10.25-9.79,4.36-22.5,1.31-24.47-8.95-8.07-11.13-6.76-14.29-1.2-14.18,4.41c.01.55,6.47,14.81,6.55,15.68.67,8.09-.87,11.9-.87,11.9Z" fill="#ffdb9c"/>
      <path d="M607.49,28.34s-7.5.62-8.76,2.36-3.32,13.37-.85,14.33,10.71,2.07,11.46.67,3.82-15.69-1.85-17.36Z" fill="url(#Dégradé_sans_nom_491-26)"/>
      <path d="M596.72,49.88s3.28-7.85,5.14-7.42,1.92,7.42,1.92,7.42" fill="#ffdb9c"/>
      <path d="M600.12,53.95s3.06-3.63,2.86-5.84-1.79-3.93-1.79-3.93c0,0-3.3,8.39-1.07,9.77Z" fill="#fff"/>
    </g>
    <g id="Popcorn3">
      <path d="M540.92,85.12s16.38,9.41,24.59,2.77,24.34-10.19,18.61-19.34-1.82-22.65-8.36-25.3-22.59-8.62-28.86-3.05c-6.27,5.57-18.91,22.48-5.98,44.92Z" fill="#ffdb9c"/>
      <path d="M559.22,85.93s-5.09.1-8.96-2.72-8.56-5.97-8.84-8.51-3.15-7.58-1.79-8.76,3.92-1,6.39,1.38,10.49,9.87,10.04,10.8,1.11,3.33,2.04,3.55,1.92,3.44,1.12,4.26Z" fill="#fff"/>
      <path d="M547.14,60s-1.76-7.14,2.25-9.65,9.94-6.56,11.94-5.09,5.11,1.06,5.72,2.55-5.92,16.06-8.12,16.69-12.74,6.16-11.79-4.51Z" fill="#fff"/>
      <path d="M560.72,77.29s6.04,3.64,8.43,1.63,6.47-1.53,7.68-3.97,3.1-5.63,1.1-8.24-5.9-6.36-7.39-5.98-12.39,5.79-9.57,7.82-.24,8.75-.24,8.75Z" fill="#fff"/>
      <path d="M551.98,41.3s3.05-4.75,2.71-6.59-1.48-4.76-2.27-5.51-12.34-1.96-14.18-.06-18.75,13.19-17.91,16.72.85,12.02,3.33,12.59,9.46,10.78,13.28,6.66c.37-.4,5.6-15.16,6.15-15.83,5.13-6.29,8.88-7.97,8.88-7.97Z" fill="#ffdb9c"/>
      <path d="M526.64,48.66s5.83,4.75,7.95,4.38,11.66-7.33,10.55-9.74-6.29-8.92-7.8-8.43-13.63,8.66-10.7,13.79Z" fill="url(#Dégradé_sans_nom_491-27)"/>
      <path d="M549.33,40.61s-7.81,3.38-8.85,1.78,3.76-6.68,3.76-6.68" fill="#ffdb9c"/>
      <path d="M549.7,35.32s-4.72.49-6.11,2.23-1.43,4.07-1.43,4.07c0,0,8.2-3.76,7.54-6.3Z" fill="#fff"/>
    </g>
    <g id="Popcorn2">
      <path d="M618.33,23.87s-18.33,4.58-19.64,15.05-10.47,24.22,0,26.84,17.02,15.05,23.56,12.44,22.25-9.45,22.91-17.82-1.96-29.31-26.84-36.51Z" fill="#ffdb9c"/>
      <path d="M604.58,35.98s3.6-3.6,8.35-4.25,10.31-1.64,12.27,0,7.53,3.27,7.36,5.07-2.13,3.44-5.56,3.44-14.4.16-14.73-.82-3.11-1.64-3.93-1.15-3.76-1.15-3.76-2.29Z" fill="#fff"/>
      <path d="M631.27,46.29s6.22,3.93,5.07,8.51-2.62,11.62-5.07,11.95-4.42,2.78-5.89,2.13-6.87-15.68-5.73-17.66,4.91-13.27,11.62-4.93Z" fill="#fff"/>
      <path d="M609.49,43.25s-6.87,1.56-7.2,4.67-3.6,5.58-2.78,8.19,1.67,6.21,4.93,6.7,8.66.49,9.47-.82,4.91-12.76,1.47-12.27-5.89-6.47-5.89-6.47Z" fill="#fff"/>
      <path d="M640.75,63.12s1.09,5.54,2.62,6.63,4.36,2.4,5.45,2.4,10.25-7.14,10.25-9.79,4.36-22.5,1.31-24.47-8.95-8.07-11.13-6.76-14.29-1.2-14.18,4.41c.01.55,6.47,14.81,6.55,15.68.67,8.09-.87,11.9-.87,11.9Z" fill="#ffdb9c"/>
      <path d="M653.9,40.25s-7.5.62-8.76,2.36-3.32,13.37-.85,14.33,10.71,2.07,11.46.67,3.82-15.69-1.85-17.36Z" fill="url(#Dégradé_sans_nom_491-28)"/>
      <path d="M643.13,61.78s3.28-7.85,5.14-7.42,1.92,7.42,1.92,7.42" fill="#ffdb9c"/>
      <path d="M646.53,65.85s3.06-3.63,2.86-5.84-1.79-3.93-1.79-3.93c0,0-3.3,8.39-1.07,9.77Z" fill="#fff"/>
    </g>
    <g id="Popcorn1">
      <path d="M327.12,65.45s-18.33,4.58-19.64,15.05-10.47,24.22,0,26.84,17.02,15.05,23.56,12.44,22.25-9.45,22.91-17.82-1.96-29.31-26.84-36.51Z" fill="#ffdb9c"/>
      <path d="M313.38,77.55s3.6-3.6,8.35-4.25,10.31-1.64,12.27,0,7.53,3.27,7.36,5.07-2.13,3.44-5.56,3.44-14.4.16-14.73-.82-3.11-1.64-3.93-1.15-3.76-1.15-3.76-2.29Z" fill="#fff"/>
      <path d="M340.06,87.86s6.22,3.93,5.07,8.51-2.62,11.62-5.07,11.95-4.42,2.78-5.89,2.13-6.87-15.68-5.73-17.66,4.91-13.27,11.62-4.93Z" fill="#fff"/>
      <path d="M318.28,84.83s-6.87,1.56-7.2,4.67-3.6,5.58-2.78,8.19,1.67,6.21,4.93,6.7,8.66.49,9.47-.82,4.91-12.76,1.47-12.27-5.89-6.47-5.89-6.47Z" fill="#fff"/>
      <path d="M349.54,104.69s1.09,5.54,2.62,6.63,4.36,2.4,5.45,2.4,10.25-7.14,10.25-9.79,4.36-22.5,1.31-24.47-8.95-8.07-11.13-6.76-14.29-1.2-14.18,4.41c.01.55,6.47,14.81,6.55,15.68.67,8.09-.87,11.9-.87,11.9Z" fill="#ffdb9c"/>
      <path d="M362.69,81.82s-7.5.62-8.76,2.36-3.32,13.37-.85,14.33,10.71,2.07,11.46.67,3.82-15.69-1.85-17.36Z" fill="url(#Dégradé_sans_nom_491-29)"/>
      <path d="M351.92,103.35s3.28-7.85,5.14-7.42,1.92,7.42,1.92,7.42" fill="#ffdb9c"/>
      <path d="M355.32,107.42s3.06-3.63,2.86-5.84-1.79-3.93-1.79-3.93c0,0-3.3,8.39-1.07,9.77Z" fill="#fff"/>
    </g>
  </g>
  <g id="emballage-cornet">
    <g id="Motif">
      <g id="Rectangle_2">
        <polygon points="469.04 713.4 427.28 713.39 367.98 105.95 422.96 105.97 469.04 713.4" fill="#f7f0f0"/>
      </g>
      <g id="Rectangle_3">
        <polygon points="510.81 713.41 469.04 713.4 422.96 105.97 477.94 105.98 510.81 713.41" fill="#dd3e3e"/>
      </g>
      <g id="Rectangle_1">
        <polygon points="427.28 713.39 385.51 713.37 313 105.94 367.98 105.95 427.28 713.39" fill="#dd3e3e"/>
      </g>
      <g id="Rectangle_4">
        <polygon points="552.58 713.42 510.81 713.41 477.94 105.98 532.92 106 552.58 713.42" fill="#f7f0f0"/>
      </g>
      <g id="Rectangle_5">
        <polygon points="594.34 713.43 552.58 713.42 532.92 106 587.91 106.01 594.34 713.43" fill="#dd3e3e"/>
      </g>
      <g id="Rectangle_6">
        <polygon points="636.11 713.44 594.34 713.43 587.91 106.01 642.89 106.03 636.11 713.44" fill="#f7f0f0"/>
      </g>
      <g id="Rectangle_7">
        <polygon points="677.88 713.46 636.11 713.44 642.89 106.03 697.87 106.04 677.88 713.46" fill="#dd3e3e"/>
      </g>
      <g id="Rectangle_8">
        <polygon points="719.64 713.47 677.88 713.46 697.87 106.04 752.85 106.06 719.64 713.47" fill="#f7f0f0"/>
      </g>
      <g id="Rectangle_9">
        <polygon points="761.41 713.48 719.64 713.47 752.85 106.06 807.83 106.08 761.41 713.48" fill="#dd3e3e"/>
      </g>
      <g id="Rectangle_10">
        <polygon points="803.17 713.49 761.41 713.48 807.83 106.08 862.81 106.09 803.17 713.49" fill="#f7f0f0"/>
      </g>
      <g id="Rectangle_11">
        <polygon points="844.94 713.5 803.17 713.49 862.81 106.09 917.8 106.11 844.94 713.5" fill="#dd3e3e"/>
      </g>
    </g>
    <polygon id="Ombre_bas" points="915.03 131.17 315.76 129.07 313 109.09 917.44 109.09 915.03 131.17" fill="url(#Dégradé_sans_nom_249)"/>
    <line id="Bord_bas" x1="302.52" y1="104.78" x2="928.27" y2="104.78" fill="#dd3e3e" stroke="url(#Dégradé_sans_nom_194)" stroke-linecap="round" stroke-miterlimit="10" stroke-width="10"/>
    <polygon id="Ombre" points="383.95 700.28 846.42 701.14 845.47 709.08 385 709.08 383.95 700.28" fill="url(#Dégradé_sans_nom_249-2)"/>
    <line id="Bord" x1="844.94" y1="713.39" x2="385.51" y2="713.38" fill="#dd3e3e" stroke="url(#Dégradé_sans_nom_194-2)" stroke-linecap="round" stroke-miterlimit="10" stroke-width="10"/>
  </g>
</svg>