<?xml version="1.0" encoding="iso-8859-1"?>
<!-- Uploaded to: SVG Repo, www.svgrepo.com, Generator: SVG Repo Mixer Tools -->
<svg version="1.1" id="Layer_1" xmlns="http://www.w3.org/2000/svg" xmlns:xlink="http://www.w3.org/1999/xlink" 
	 viewBox="0 0 480 480" xml:space="preserve">
<rect x="59" y="11" style="fill:#875426;" width="34" height="18"/>
<rect x="379" y="315" style="fill:#996632;" width="66" height="34"/>
<g>
	<rect x="283" y="323" style="fill:#FFF8EF;" width="90" height="18"/>
	<rect x="192" y="376" style="fill:#FFF8EF;" width="32" height="48"/>
</g>
<path style="fill:#D9CDC1;" d="M272,80c0-22.4,17.6-40,40-40s40,17.6,40,40s-17.6,40-40,40S272,102.4,272,80z M288,80
	c0,12.8,10.4,24,24,24s24-11.2,24-24s-10.4-24-24-24S288,67.2,288,80z"/>
<g>
	<rect x="139" y="291" style="fill:#996632;" width="138" height="74"/>
	<rect x="75" y="435" style="fill:#996632;" width="266" height="34"/>
</g>
<g>
	<rect x="72" y="88" style="fill:#D9CDC1;" width="88" height="56"/>
	<rect x="67" y="83" style="fill:#D9CDC1;" width="98" height="66"/>
</g>
<path style="fill:#EE5656;" d="M104,195c-16,0-29,13-29,29s13,29,29,29s29-13,29-29S120,195,104,195z"/>
<path style="fill:#FFF8EF;" d="M224,155c-1.2,0-3-1.8-3-3V35H35v250h338V155H224z M61,152V80c0-2,1-3,3-3h104c1.2,0,3,1,3,3v72
	c0,1.2-1.8,3-3,3H64C62,155,61,153.2,61,152z M104,259c-19.6,0-35-15.4-35-35s15.4-35,35-35s35,15.4,35,35S123.6,259,104,259z
	 M184,259c-10.5,0-19-8.5-19-19c0-10.1,8.9-19,19-19s19,8.9,19,19C203,250.5,194.5,259,184,259z M347,256c0,1.2-1.8,3-3,3h-35v-6h32
	v-32h6V256z"/>
<path style="fill:#C6A171;" d="M360,11l-1.6,9.7c12.3,4.1,20.6,15.7,20.6,28.9v61.6c0,12.5-7.4,23.5-18.8,28.2
	c-0.6,0.2-1.2,0.5-1.8,0.7l1.6,9.7h37V11H360z"/>
<path style="fill:#875426;" d="M265.6,20.7L264,11h-37v138.8h37l1.6-9.7c-12.3-4.1-20.6-15.7-20.6-28.9V49.6
	C245,36.4,253.3,24.8,265.6,20.7z"/>
<path style="fill:#996632;" d="M384,111.2V49.6c0-15.2-9.6-28.8-24-33.6h-40h-8h-8h-40c-14.4,4.8-24,18.4-24,33.6v61.6
	c0,14.4,8.7,27.4,21.9,32.8H304h8h8h42.1C375.3,138.6,384,125.6,384,111.2z M312,136c-31.2,0-56-24.8-56-56s24.8-56,56-56
	s56,24.8,56,56S343.2,136,312,136z"/>
<g>
	<path style="fill:#D9CDC1;" d="M79,35l-14.2,9.8C54.4,52,48,64,48,76.8v173.6c0,8.8,4,16.8,11.2,21.6L75,283l-42,7V35H79z"/>
	<polygon style="fill:#D9CDC1;" points="360,154 360,264 313.7,287.7 376,287.3 376,154 	"/>
</g>
<path style="fill:#42210B;" d="M352,216v40c0,4-4,8-8,8h-40v-16h32v-32H352z M320,80c0-4.8-4-8-8-8s-8,3.2-8,8s4,8,8,8
	S320,84.8,320,80z M312,104c-13.6,0-24-11.2-24-24s10.4-24,24-24s24,11.2,24,24S325.6,104,312,104z M312,40c-22.4,0-40,17.6-40,40
	s17.6,40,40,40s40-17.6,40-40S334.4,40,312,40z M312,24c31.2,0,56,24.8,56,56s-24.8,56-56,56s-56-24.8-56-56S280.8,24,312,24z
	 M184,264c-12.8,0-24-10.4-24-24c0-12.8,11.2-24,24-24s24,11.2,24,24C208,253.6,196.8,264,184,264z M184,232c-4,0-8,4-8,8s4,8,8,8
	s8-4,8-8S188,232,184,232z M104,184c22.4,0,40,17.6,40,40s-17.6,40-40,40s-40-17.6-40-40S81.6,184,104,184z M128,224
	c0-12.8-11.2-24-24-24s-24,11.2-24,24c0,13.6,11.2,24,24,24S128,237.6,128,224z M160,144V88H72v56H160z M176,80v72c0,4-4,8-8,8H64
	c-4.8,0-8-4-8-8V80c0-4.8,3.2-8,8-8h104C172,72,176,75.2,176,80z M64,24h24v-8H64V24z M224,424v-48h-32v48H224z M336,440H232h-48H80
	v24h256V440z M144,360h40h48h40v-16v-24v-24H144V360z M368,280V160H224c-4,0-8-4-8-8V40H40v240h96h144H368z M368,336v-8h-80v8H368z
	 M392,144V16h-72h-8h-80v128h80h8H392z M440,344v-24h-56v24H440z M456,312v40c0,4-4,8-8,8h-72c-4,0-8-4-8-8h-80v16c0,4-4,8-8,8h-40
	v48h104c4,0,8,4,8,8v40c0,4-4,8-8,8H72c-4.8,0-8-4-8-8v-40c0-4,3.2-8,8-8h104v-48h-40c-4,0-8-4-8-8v-72H32c-4.8,0-8-4-8-8V32
	c0-4.8,3.2-8,8-8h16V8c0-4,3.2-8,8-8h40c4,0,8,4,8,8v16h112V8c0-4,4-8,8-8h176c4,0,8,4,8,8v144c0,4-4,8-8,8h-16v128c0,4-4,8-8,8h-88
	v16h80c0-4,4-8,8-8h72C452,304,456,308,456,312z"/>
</svg>